# xmcd CD database file
#
# Track frame offsets:
#	150
#	20067
#	58649
#	84290
#	105206
#	145515
#	164114
#	182577
#	201099
#
# Disc length: 3031 seconds
#
# Revision: 4
# Processed by: cddbd v1.5.2PL0 Copyright (c) Steve Scherf et al.
# Submitted via: CDex 1.81
#
DISCID=6e0bd509
DTITLE=Jimi Hendrix - Live In Paris
DYEAR=1968
DGENRE=Classic Rock
TTITLE0=Killing Floor (Live 29-1-1968 Olympia Theatre, Paris)
TTITLE1=Experiencing The Blues (Live 29-1-1968 Olympia Theatre, Paris)
TTITLE2=Foxy Lady (Live 29-1-1968 Olympia Theatre, Paris)
TTITLE3=Red House (Live 29-1-1968 Olympia Theatre, Paris)
TTITLE4=Driving South (Live 29-1-1968 Olympia Theatre, Paris)
TTITLE5=The Wind Cries Mary (Live 29-1-1968 Olympia Theatre, Paris)
TTITLE6=Fire (Live 29-1-1968 Olympia Theatre, Paris)
TTITLE7=Little Wing (Live 29-1-1968 Olympia Theatre, Paris)
TTITLE8=Purple Haze (Live 29-1-1968 Olympia Theatre, Paris)
EXTD=Live In Paris Jan 29th 1968 [CD4] YEAR: 1968
EXTT0=
EXTT1=
EXTT2=
EXTT3=
EXTT4=
EXTT5=
EXTT6=
EXTT7=
EXTT8=
PLAYORDER=
